<?xml version="1.0" encoding="UTF-8"?>
<!DOCTYPE svg PUBLIC "-//W3C//DTD SVG 1.1//EN" "http://www.w3.org/Graphics/SVG/1.1/DTD/svg11.dtd">
<!-- Creator: CorelDRAW 2019 (64-Bit) -->
<svg xmlns="http://www.w3.org/2000/svg" xml:space="preserve" width="500px" height="331px" version="1.1" style="shape-rendering:geometricPrecision; text-rendering:geometricPrecision; image-rendering:optimizeQuality; fill-rule:evenodd; clip-rule:evenodd"
viewBox="0 0 130.9 86.69"
 xmlns:xlink="http://www.w3.org/1999/xlink">
 <defs>
  <style type="text/css">
   <![CDATA[
    .fil1 {fill:#0056EC}
    .fil16 {fill:#009A92}
    .fil7 {fill:#00AD9F}
    .fil5 {fill:#0A213E}
    .fil18 {fill:#0A42A3}
    .fil30 {fill:#0AB2A2}
    .fil21 {fill:#163A65}
    .fil29 {fill:#1C69F3}
    .fil20 {fill:#216EF4}
    .fil12 {fill:#4CD1BA}
    .fil4 {fill:#51D2BC}
    .fil37 {fill:#7398EB}
    .fil28 {fill:#758498}
    .fil32 {fill:#8B98AB}
    .fil35 {fill:#8BB2F8}
    .fil27 {fill:#95B2E6}
    .fil11 {fill:#C6D8FB}
    .fil19 {fill:#C7D6F5}
    .fil9 {fill:#C7D9FB}
    .fil8 {fill:#C9D5F3}
    .fil24 {fill:#CDD2F4}
    .fil31 {fill:#D6DAF5}
    .fil36 {fill:#DAE6FB}
    .fil25 {fill:#DC8D11}
    .fil33 {fill:#E8AB2F}
    .fil34 {fill:#E9A415}
    .fil26 {fill:#E9F1FD}
    .fil2 {fill:#EBF2FE}
    .fil13 {fill:#ECECF8}
    .fil0 {fill:#ECF3FF}
    .fil15 {fill:#EDEDFA}
    .fil38 {fill:#EFC571}
    .fil23 {fill:#F3F3FB}
    .fil3 {fill:#F8FBFE}
    .fil22 {fill:#FDE5DA}
    .fil14 {fill:#FE9A8B}
    .fil17 {fill:#FEEDEA}
    .fil6 {fill:#FFB9A2}
    .fil10 {fill:#FFC9B8}
   ]]>
  </style>
 </defs>
 <g id="Layer_x0020_1">
  <metadata id="CorelCorpID_0Corel-Layer"/>
  <path class="fil0" d="M97.86 22.7c1.04,-0.34 1.64,0.26 1.02,1.28 -1.23,0.38 -1.7,-0.42 -1.02,-1.28zm4.65 -10.81c-0.07,3.1 -2.07,5.54 -5.33,5.26l-0.66 -0.14c-1.21,-0.27 -1.85,-0.88 -2.79,-1.47 -2.39,0.79 -8.65,4.59 -10.2,6.42 0.96,1.98 1.26,1.75 1.09,4.28 -0.03,-0.22 -0.04,-0.72 -0.08,-0.88 -0.2,-0.92 0.06,-0.25 -0.39,-0.82 -0.33,1.37 0.18,2.55 -0.01,4.27 0.12,-0.44 0.11,-0.89 0.11,-1.42 0.01,-1.17 0.25,-1.24 -0.51,-1.79 0.25,2.25 0.08,3.6 -0.61,5.74 -0.71,2.24 -0.21,2.39 0.54,4.48 0.83,2.31 -0.02,3.33 0.14,5.24 0.16,1.77 2,2.04 1.31,4.2 -0.94,0.33 -0.53,0.21 -1.48,-0.06 -0.33,1.39 1.53,3.49 2.77,4.04l0.61 0.25c1.76,0.24 7.88,2.16 9.45,2.97 2.63,1.37 4.81,3.84 5.77,6.69 0.53,-0.85 0.54,-2.66 1.35,-4.03 1.48,-2.49 3.83,-3.17 5.41,-5.52 0.9,-1.34 1.04,-2.99 1.6,-3.89l0.66 0.48c0.56,-1.27 -0.26,-4.32 1.17,-7.12 3.02,-5.91 10.63,-5.2 10.22,-14.99 -0.19,-4.73 -2.43,-8.23 -6.37,-10.48 -1.95,-1.11 -4.13,-1.76 -6.37,-2.05 -4.39,-0.56 -6.24,0.64 -7.4,0.34z"/>
  <path class="fil0" d="M32.29 45.48c3.11,-0.4 29.9,-2.93 30.83,-2.6 1.39,1.38 3.55,13.15 4.83,14.88 3.14,-5.17 3.7,-4.21 9.38,-7.28l0.58 -0.27c1.8,-1.25 1.42,-1.61 1.27,-3.72 -1.6,0.16 -3.28,0.82 -4.6,-0.82 -0.63,-0.78 -1.34,-2.78 -1.81,-3.78 -0.69,-1.46 -2.83,-7.01 -3.55,-7.78 -1.84,1.35 -6.06,-0.6 -7.88,-1.61 -5.49,-3.06 -11.98,-10.37 -19.75,-11.43 -4.75,-0.65 -12.66,2.19 -13.53,7.31 -0.93,5.43 5.77,12.17 3.32,16.53l0.71 0.43c0.04,-0.05 0.13,0.1 0.2,0.14z"/>
  <path class="fil1" d="M88.91 61.04c-0.12,0.73 0.04,0.79 -0.63,0.89l0.58 -1.07 0.9 -0.97c-0.21,0.9 -0.09,0.78 -0.85,1.15zm-56.62 -15.56c-1.42,0.12 -4.59,0.12 -5.79,0.71l0.02 1.47c0.71,0.84 1.08,2.6 1.39,3.8l0.3 0c-0.27,-1.68 -1.34,-3.4 -1.31,-5.14l35.99 -3.18c0.62,0.75 4.51,13.79 4.5,14.96 0.73,0.89 2.01,6.28 2.46,7.86 0.47,1.09 2.47,7.34 2.22,8.1 -0.83,0.66 -1.77,0.43 -2.89,0.4l-2.64 0.06 -3.88 0.05 -26.87 0.22c-0.58,-0.89 -6.82,-20.63 -7.19,-22.59l-0.49 -0.22 7.27 23.15c3.12,0.47 10.13,0 13.57,-0.05 4.55,-0.06 9.11,-0.12 13.66,-0.15l3.79 -0.05 -0.04 1.71 5.4 0.02 -1.6 -1.48 0.55 -0.29c2.7,-0.09 1.72,-1.6 1.08,-3.79 -0.39,-1.33 -1.03,-2.99 -1.22,-4.32 2.37,0.88 6.39,3.8 8.58,5.27 2.03,-2.08 4.06,-3.89 5.86,-6.12 0.1,-0.74 0.95,-1.68 1.48,-2.23 0.58,-0.6 1.16,-1.51 1.79,-1.72 -0.34,1.2 -2.08,2.57 -2.72,3.6 0.27,0.74 3.51,3.33 4.39,4.12 1.14,1.03 3.84,2.64 4.65,3.77 2.05,-1.27 3.65,-4.02 4.77,-4.71 -0.42,1.81 -0.13,1.71 -1.21,3.57 -0.98,1.67 -0.32,2.49 -1.26,4.46l4.38 0.03c-0.07,-2.77 -0.66,-4.38 0.54,-7.16l1.9 -0.27c-1.22,-0.94 -7.22,-1.53 -7.06,-10.76 2.05,0.6 3.07,2.06 5.83,2.18l-0.25 -1.61c-0.96,-2.85 -3.14,-5.32 -5.77,-6.69 -1.57,-0.81 -7.69,-2.73 -9.45,-2.97 -0.42,0.2 -0.48,-0.29 -0.21,0.44 -0.04,2.03 -1.55,2.77 -3.12,3.81 -1.19,0.8 -3.05,2.43 -4.03,2.91 -1.75,-0.97 -2.29,-4.29 -2.33,-6.17 -5.68,3.07 -6.24,2.11 -9.38,7.28 -1.28,-1.73 -3.44,-13.5 -4.83,-14.88 -0.93,-0.33 -27.72,2.2 -30.83,2.6z"/>
  <path class="fil2" d="M26.59 50.72c-0.24,-0.08 -0.62,-0.18 -0.86,-0.37 -0.49,-0.4 -0.19,-0.1 -0.41,-0.66 0.82,0.18 0.96,0.2 1.27,1.03zm4.48 24.16l0.56 0.51c-0.04,0.85 -0.18,0.91 -0.62,1.69l41.34 0.1 -0.59 -0.57 -5.4 -0.02 -4.09 -0.01 0.34 -1.65c-4.55,0.03 -9.11,0.09 -13.66,0.15 -3.44,0.05 -10.45,0.52 -13.57,0.05l-7.27 -23.15 -0.2 -0.52c-0.31,-1.2 -0.68,-2.96 -1.39,-3.8l-0.19 0.61c-4.04,1.43 -12.89,6.4 -15.31,9.48 -2.1,2.67 -3.54,5.39 -3.55,8.98 -0.01,2.7 1.15,7.74 2.64,9.94l11.35 -0.1c-0.34,-1.07 -0.84,-1.41 -0.99,-2.49 1.23,-1.02 1.45,-0.79 2.88,-1.22 0.52,-0.87 0.82,-1.35 0.59,-2.43 -1.6,-0.63 -1.01,0.37 -2.39,0.28 -0.85,-0.06 -1.4,-0.74 -1.2,-1.62 0.27,-1.19 2.83,-2.01 3.69,-0.62 -1.4,-0.6 -4.18,-0.62 -3.14,1.69 1.8,0.59 1.14,-0.38 2.9,-0.29 1.3,0.62 0.1,2.39 -0.02,2.94 1.09,-0.02 0.81,0.03 1.22,-0.84 0.31,-0.65 0.44,-0.7 0.65,-1.42 -0.23,-1.31 -1.01,-1.27 -0.32,-2.55 0.64,-0.3 0.35,-0.35 0.92,0.04 -0.44,0.21 0.08,-0.39 -0.85,0.29 -0.24,1.51 0.7,1.27 0.56,2.37 -0.12,0.86 -0.73,0.98 -0.81,2.04 1,0.01 0.63,-0.02 1.45,-0.62 0.16,0 1.01,0.05 1.03,0.05 1.44,-0.15 0.27,0.08 0.96,-0.37 -0.75,-1 -0.12,-0.29 -1.2,-0.7 0.86,-0.37 1.81,0.14 1.22,1.31l-2.07 0.18c0.77,0.5 1.77,0.35 2.82,0.76 1.47,0.57 0.3,0.66 1.71,1.53z"/>
  <path class="fil3" d="M33.01 58.77l13.83 -0.88c0.58,1.21 2.63,7.48 2.61,8.49l-13.76 0.49 -2.68 -8.1zm-4.8 -7.31l0.88 0.54 0.21 0.51 -0.46 -0.24 -0.24 -0.07c0.37,1.96 6.61,21.7 7.19,22.59l26.87 -0.22c0.53,-0.77 0.84,-1.76 0.99,-2.68l-26.11 0.53c-0.41,-0.88 -1.23,-2.96 -1.19,-3.8l26.91 -0.68 -1.66 -1.92 -9.41 0.29c-0.49,-1.45 -2.63,-7.54 -2.44,-8.58l1.92 -0.11 -0.09 -1.76 -19.07 1.17 -1.08 -3.5c-0.8,-0.3 -0.36,-0.03 -0.68,-0.57l0.32 -0.38 -1.1 -4.01 19.59 -1.66 1.97 5.96 2.82 0.88 -2.09 -7.07 8.86 -0.64 2.75 8.98 -5.25 0.37 0.82 1.77 4.98 -0.28 1.7 5.09 1.38 -2.85 -0.11 -1.02c0.01,-1.17 -3.88,-14.21 -4.5,-14.96l-35.99 3.18c-0.03,1.74 1.04,3.46 1.31,5.14z"/>
  <path class="fil4" d="M100 63.96l-0.78 -0.81c0.96,0.39 0.56,0.17 0.78,0.81zm2.24 -4.81l0.25 1.61c-2.76,-0.12 -3.78,-1.58 -5.83,-2.18 -0.16,9.23 5.84,9.82 7.06,10.76l4.08 -0.15c-0.26,-3.68 -6.68,-3.25 -7.8,-5.23 1.5,0.47 2.55,1.36 4.35,1.51 -0.51,-1.2 -1.28,-1.3 -1.52,-2.96 0.61,2.34 3.29,3.75 4.39,4.84 0.71,0.69 0.65,1.29 1.38,1.89 0.37,-2.38 -1.91,-4.3 -2.6,-6.48 -0.68,-2.15 -0.28,-5.66 1.56,-7.01 -1.03,2.57 -2.4,3.72 -1.2,7.11 0.96,2.73 2.15,2.84 2.76,6.38l1.86 0.04 0.48 -0.77c-0.71,-0.51 -0.49,0.21 -0.5,-0.93 1.2,-1.75 0.68,-3.49 0.15,-5.25 -0.54,-1.75 -0.23,-5.07 0.36,-6.68l0.35 0.6c0.9,-1.07 1.4,-4.05 1.17,-5.52 -0.3,-1.84 -1.59,-3.65 -1.73,-4.54l-0.66 -0.48c-0.56,0.9 -0.7,2.55 -1.6,3.89 -1.58,2.35 -3.93,3.03 -5.41,5.52 -0.81,1.37 -0.82,3.18 -1.35,4.03z"/>
  <path class="fil5" d="M64.6 26.86l0.61 0.52c-0.41,1.86 0.46,2.63 1.48,3.82 -1.34,-0.15 -2.22,-1.15 -2.44,-2.46 1.01,3.46 4.03,2.8 5.86,4.23 -2.41,0.33 -3.35,-1.25 -3.93,-0.48l1.38 0.41c0.2,0.02 0.62,-0.01 0.83,0.07 0.92,0.36 0.41,0.21 0.8,0.59l-1.78 0.12 1.72 0.02c2.25,-0.1 4.45,-0.99 6.48,-0.84 1.09,0.77 1.17,1.58 2.12,2.53l0.73 -0.82c3.6,-0.29 1.63,4.29 1.83,5.39 0.45,2.45 2.42,3.65 3.35,5.24 0.95,0.27 0.54,0.39 1.48,0.06 0.69,-2.16 -1.15,-2.43 -1.31,-4.2 -0.16,-1.91 0.69,-2.93 -0.14,-5.24 -0.75,-2.09 -1.25,-2.24 -0.54,-4.48 0.69,-2.14 0.86,-3.49 0.61,-5.74 -1.3,-3.04 -3.7,-3.46 -6.73,-2.15 -1.43,0.62 -1.76,1.6 -3.46,1.16 -4.27,-1.11 -4.22,0.48 -4.77,2.31 -1.09,0.4 -3.88,-0.6 -4.18,-0.06z"/>
  <path class="fil6" d="M69.13 33.7l0.09 0.41c0.72,0.77 2.86,6.32 3.55,7.78 0.47,1 1.18,3 1.81,3.78 1.32,1.64 3,0.98 4.6,0.82 0.62,-0.59 0.68,-0.52 1.56,-0.65 0.2,1.96 -0.45,4.17 -2.27,4.52 -1.09,0.2 -0.24,0.13 -0.56,-0.15l-0.58 0.27c0.04,1.88 0.58,5.2 2.33,6.17 0.98,-0.48 2.84,-2.11 4.03,-2.91 1.57,-1.04 3.08,-1.78 3.12,-3.81l-0.4 -0.69c-1.24,-0.55 -3.1,-2.65 -2.77,-4.04 -0.93,-1.59 -2.9,-2.79 -3.35,-5.24 -0.2,-1.1 1.77,-5.68 -1.83,-5.39l-0.73 0.82c-0.95,-0.95 -1.03,-1.76 -2.12,-2.53 -2.03,-0.15 -4.23,0.74 -6.48,0.84z"/>
  <path class="fil7" d="M100 63.96c1.12,1.98 7.54,1.55 7.8,5.23l-4.08 0.15 -1.9 0.27c-1.2,2.78 -0.61,4.39 -0.54,7.16l-0.1 0.06c0.5,0.77 1.11,3.36 1.64,4.58 0.68,1.57 1.36,2.25 2.38,3.48 0.85,0.84 1.21,0.85 1.94,1.46l1.36 -0.01 1.66 -1.22c-0.37,-0.51 -0.33,0.66 -0.25,-0.81 0.04,-0.7 0.98,-1.64 1.03,-1.8 0.05,-1.15 -0.22,-1.98 -0.2,-3.09 0.02,-1.61 0.35,-1.25 0.79,-2.42 0.55,-1.45 -0.1,-1.24 -0.44,-2.32 -0.33,-1.03 0.33,-0.97 0.2,-2.23 -0.84,-0.8 -0.94,-0.31 -1.72,-1.34 -0.48,-0.62 -0.76,-0.8 -1.21,-1.54l2.67 -0.11 -0.05 -0.18 -1.86 -0.04c-0.61,-3.54 -1.8,-3.65 -2.76,-6.38 -1.2,-3.39 0.17,-4.54 1.2,-7.11 -1.84,1.35 -2.24,4.86 -1.56,7.01 0.69,2.18 2.97,4.1 2.6,6.48 -0.73,-0.6 -0.67,-1.2 -1.38,-1.89 -1.1,-1.09 -3.78,-2.5 -4.39,-4.84 0.24,1.66 1.01,1.76 1.52,2.96 -1.8,-0.15 -2.85,-1.04 -4.35,-1.51z"/>
  <path class="fil8" d="M66.68 63.9c-0.95,-0.35 -0.99,-0.5 -0.31,-1.43l0.31 1.43zm-7.24 -6.74l-7.77 0.46 -1.92 0.11c-0.19,1.04 1.95,7.13 2.44,8.58l9.41 -0.29 5.52 -0.21 -0.23 -1.45c1.17,0.53 1.66,1.28 2.96,1.6 -0.45,-1.58 -1.73,-6.97 -2.46,-7.86l0.11 1.02 -1.38 2.85 -1.7 -5.09 -4.98 0.28z"/>
  <path class="fil9" d="M41.55 54.58c-0.62,0.48 -0.53,0.34 -1.47,0.28 0.27,-0.23 -0.1,-0.21 0.5,-0.32 0.59,-0.12 0.54,-0.02 0.97,0.04zm-4.75 -0.04c0.96,-0.06 0.85,-0.18 1.5,0.29 -0.97,0.1 -0.87,0.25 -1.5,-0.29zm7.74 -0.63l-0.04 0.51c-0.93,0.1 -0.76,0.25 -1.35,-0.11l1.39 -0.4zm-10.73 0.01l1.43 0.29c-0.11,0.14 0.15,0.55 -0.91,0.26 -1.03,-0.28 -0.44,-0.43 -0.52,-0.55zm10.73 -0.01c-0.67,-1.89 -1.75,-2.72 0.34,-4.41 7.29,-1.11 7.17,9.8 -0.34,4.41zm-13.79 -0.95c0.84,0.08 1.16,0.07 1.37,0.73l-0.69 -0.16 1.08 3.5 19.07 -1.17 0.68 -0.08 -0.73 -2.91 -1.97 -5.96 -19.59 1.66 1.1 4.01 -0.32 0.38z"/>
  <path class="fil10" d="M70.71 74.84c0.76,0.97 5.92,4.73 7.18,5.35 1.08,-0.65 2.05,-1.27 3.16,-1.91 1.04,-0.6 1.88,-1.83 2.75,-2.34 1.26,-0.73 2.14,-0.22 3.41,-1.67 0.45,-0.53 2.07,-2.24 2.24,-2.56 -0.2,-0.73 -2.95,-3.66 -2.43,-3.9 -0.39,-0.5 -1.44,-1.67 -2.01,-1.93 -1.8,2.23 -3.83,4.04 -5.86,6.12 -2.19,-1.47 -6.21,-4.39 -8.58,-5.27 0.19,1.33 0.83,2.99 1.22,4.32 0.64,2.19 1.62,3.7 -1.08,3.79z"/>
  <path class="fil11" d="M63.65 71.89l0.75 -0.07 -1.16 -1.75 0.53 -1.49c1.11,0.82 2.27,2.16 2.75,3.29l-1.73 0.06 1.91 0.78 -0.16 1.81 2.64 -0.06c-0.32,-1.56 -1.7,-1.27 -2.22,-2.64l2.15 -0.11 -1.13 -3.82 -4.72 0.05 -26.91 0.68c-0.04,0.84 0.78,2.92 1.19,3.8l26.11 -0.53z"/>
  <path class="fil9" d="M35.69 66.87l13.76 -0.49c0.02,-1.01 -2.03,-7.28 -2.61,-8.49l-13.83 0.88 2.68 8.1z"/>
  <path class="fil12" d="M112.1 60.89c0.74,-1.03 2.69,-1.44 4,-1.9 0.71,-0.25 1.68,-0.46 2.31,-0.72 0.7,-0.28 1.23,-0.67 1.88,-0.92 -1.06,1.17 -6.62,3.07 -8.19,3.54zm-0.28 -4.64l-0.35 -0.6c-0.59,1.61 -0.9,4.93 -0.36,6.68 0.53,1.76 1.05,3.5 -0.15,5.25 0.01,1.14 -0.21,0.42 0.5,0.93 0.99,-2.7 2.62,-3.78 5.33,-4.64 5.27,-3.2 7.86,-4.49 6.99,-11.64 -1.13,0.48 -2.6,2.66 -4.74,3.61 -2.61,1.15 -4.38,0.77 -7.04,1.14l-0.18 -0.73z"/>
  <path class="fil13" d="M110.16 85.12l-1.66 1.22c2.76,0.53 8.93,-2.55 11.03,-4.36 2.07,-1.78 8.03,-1.53 11.37,-4.28l-5.53 0.63c0.76,-0.7 1.41,-0.68 1.7,-1.59 -1.22,-0.19 -5.47,-0.19 -6.8,-0.09 -1.98,0.16 0.58,0.58 -5.87,0.27l-0.12 -1c-0.35,0.5 -1.14,4.03 -1.54,5.11 -0.57,1.55 -1.43,2.97 -2.58,4.09z"/>
  <polygon class="fil9" points="54.35,53.75 54.96,55.56 58.62,55.39 63.87,55.02 61.12,46.04 52.26,46.68 "/>
  <path class="fil14" d="M70.71 74.84l-0.55 0.29 1.6 1.48 0.59 0.57c0.7,0.21 4.47,4.03 5.75,4.84 1.52,-0.35 3.6,-1.65 4.98,-2.47 1.01,-0.6 3.53,-2.38 4.38,-2.71 0.55,-0.21 12.54,-0.16 13.72,-0.01l0.1 -0.06 -4.38 -0.03 -8.98 -0.13 5.37 -3.73c-0.25,-0.36 -2.71,-2.15 -3.27,-2.54 -0.96,-0.67 -2.08,-1.74 -3,-2.53 -0.52,0.24 2.23,3.17 2.43,3.9 -0.17,0.32 -1.79,2.03 -2.24,2.56 -1.27,1.45 -2.15,0.94 -3.41,1.67 -0.87,0.51 -1.71,1.74 -2.75,2.34 -1.11,0.64 -2.08,1.26 -3.16,1.91 -1.26,-0.62 -6.42,-4.38 -7.18,-5.35z"/>
  <path class="fil15" d="M32.61 79.4c-1.01,1.35 -5.54,1.25 -7.19,1.37l-1.81 -0.39 1.07 0.83c-1.33,0.13 -3.64,0.11 -4.54,-1.01 0.83,-0.8 1.37,-0.74 2.54,-0.96l-0.41 -0.8c-1.37,0.06 -3.48,0.34 -3.87,1.78 1.45,1.49 12.28,3.78 15.06,-0.01 3.55,0.07 29.34,0.38 30.71,-0.28 -1.17,-0.45 -13.41,-0.3 -15.73,-0.32 -2.59,-0.02 -14.37,0.41 -15.83,-0.21z"/>
  <path class="fil16" d="M110.16 85.12c1.15,-1.12 2.01,-2.54 2.58,-4.09 0.4,-1.08 1.19,-4.61 1.54,-5.11l-0.23 -5.47 -0.59 -0.92 -2.43 -0.07 -2.67 0.11c0.45,0.74 0.73,0.92 1.21,1.54 0.78,1.03 0.88,0.54 1.72,1.34 0.13,1.26 -0.53,1.2 -0.2,2.23 0.34,1.08 0.99,0.87 0.44,2.32 -0.44,1.17 -0.77,0.81 -0.79,2.42 -0.02,1.11 0.25,1.94 0.2,3.09 -0.05,0.16 -0.99,1.1 -1.03,1.8 -0.08,1.47 -0.12,0.3 0.25,0.81z"/>
  <path class="fil17" d="M61.6 66.02l1.66 1.92 4.72 -0.05 1.13 3.82 -2.15 0.11c0.52,1.37 1.9,1.08 2.22,2.64 1.12,0.03 2.06,0.26 2.89,-0.4 0.25,-0.76 -1.75,-7.01 -2.22,-8.1 -1.3,-0.32 -1.79,-1.07 -2.96,-1.6l0.23 1.45 -5.52 0.21z"/>
  <path class="fil18" d="M94.6 73.42l-1.31 -0.54 -5.37 3.73 8.98 0.13c0.94,-1.97 0.28,-2.79 1.26,-4.46 1.08,-1.86 0.79,-1.76 1.21,-3.57 -1.12,0.69 -2.72,3.44 -4.77,4.71z"/>
  <path class="fil0" d="M28.82 75.08c-1.22,1.39 -4.22,0.27 -5.76,0.78l1.25 4.35 1.11 0.56c2.68,0.44 2.43,-0.95 3.54,-2.43l1.45 0.26 -0.62 -0.39 -0.39 -0.17c1.08,-0.54 1.54,-1.21 1.8,-2.52l-0.97 -0.27 0.48 -0.47c-0.93,0.03 -0.52,0.12 -1.25,-0.26 -0.33,0.56 0.28,0.29 -0.64,0.56z"/>
  <path class="fil0" d="M50.43 20.38c1.25,3.61 6.83,1.84 5.69,-1.95 -1.1,-3.65 -7.05,-1.98 -5.69,1.95z"/>
  <path class="fil0" d="M0.1 8.35c0.83,4.09 7.66,3.13 6.67,-1.64 -0.87,-4.17 -7.66,-3.25 -6.67,1.64z"/>
  <path class="fil0" d="M111.46 68.51l-0.48 0.77 0.05 0.18 2.43 0.07 0.59 0.92 0.08 -0.56c0.34,0.69 1.56,-1.61 1.84,-2.15 0.57,-1.12 1.32,-2.69 0.82,-3.87 -2.71,0.86 -4.34,1.94 -5.33,4.64z"/>
  <polygon class="fil17" points="51.58,55.86 51.67,57.62 59.44,57.16 58.62,55.39 54.96,55.56 54.35,53.75 51.53,52.87 52.26,55.78 "/>
  <path class="fil19" d="M47.11 51.27l0.73 -0.01c2.5,3.94 -3.65,2.45 -2.21,0.24 0.13,-0.19 0.4,-0.41 0.62,-0.47 1.11,-0.32 0.84,0.22 0.86,0.24zm-2.01 -1.4c-3,1.49 0.86,6.16 3.88,4.96 3.03,-1.2 -1.14,-6.32 -3.88,-4.96z"/>
  <path class="fil20" d="M108.7 4.48c-3.17,0.9 -1.77,5.12 1.15,4.39 2.73,-0.68 1.77,-5.21 -1.15,-4.39z"/>
  <path class="fil21" d="M63.52 28.01l-0.21 1.8c0.25,1.28 1.71,2.2 2.87,2.68 0.58,-0.77 1.52,0.81 3.93,0.48 -1.83,-1.43 -4.85,-0.77 -5.86,-4.23 0.22,1.31 1.1,2.31 2.44,2.46 -1.02,-1.19 -1.89,-1.96 -1.48,-3.82l-0.61 -0.52c-0.96,0.23 -0.89,0.12 -1.08,1.15z"/>
  <path class="fil22" d="M62.66 74.57l3.88 -0.05 0.16 -1.81 -1.91 -0.78 -0.39 -0.11 -0.75 0.07c-0.15,0.92 -0.46,1.91 -0.99,2.68z"/>
  <path class="fil23" d="M85.01 65.88c0.57,0.26 1.62,1.43 2.01,1.93 0.92,0.79 2.04,1.86 3,2.53 0.56,0.39 3.02,2.18 3.27,2.54l1.31 0.54c-0.81,-1.13 -3.51,-2.74 -4.65,-3.77 -0.88,-0.79 -4.12,-3.38 -4.39,-4.12 0.64,-1.03 2.38,-2.4 2.72,-3.6 -0.63,0.21 -1.21,1.12 -1.79,1.72 -0.53,0.55 -1.38,1.49 -1.48,2.23z"/>
  <path class="fil20" d="M82.98 5.29c-1.07,-3.27 3.85,-4.78 4.76,-1.72 1.05,3.54 -3.85,4.51 -4.76,1.72zm1.44 -3.69c-3.63,1.07 -1.94,6.96 1.98,5.61 3.35,-1.15 1.94,-6.77 -1.98,-5.61z"/>
  <path class="fil24" d="M25.42 80.77c1.65,-0.12 6.18,-0.02 7.19,-1.37l-2.2 -0.8 -1.45 -0.26c-1.11,1.48 -0.86,2.87 -3.54,2.43z"/>
  <polygon class="fil14" points="66.36,76.59 66.4,74.88 62.61,74.93 62.27,76.58 "/>
  <path class="fil25" d="M28.82 75.08c0.92,-0.27 0.31,0 0.64,-0.56 -2.36,0.15 -6,-0.81 -8.06,0.27 1.55,0.9 5.61,0.51 7.42,0.29z"/>
  <path class="fil26" d="M45.1 49.87c2.74,-1.36 6.91,3.76 3.88,4.96 -3.02,1.2 -6.88,-3.47 -3.88,-4.96zm-0.56 4.04c7.51,5.39 7.63,-5.52 0.34,-4.41 -2.09,1.69 -1.01,2.52 -0.34,4.41z"/>
  <path class="fil27" d="M64.4 71.82l0.39 0.11 1.73 -0.06c-0.48,-1.13 -1.64,-2.47 -2.75,-3.29l-0.53 1.49 1.16 1.75z"/>
  <path class="fil14" d="M79.18 46.49c0.15,2.11 0.53,2.47 -1.27,3.72 0.32,0.28 -0.53,0.35 0.56,0.15 1.82,-0.35 2.47,-2.56 2.27,-4.52 -0.88,0.13 -0.94,0.06 -1.56,0.65z"/>
  <path class="fil28" d="M84.15 24.54c0.45,0.57 0.19,-0.1 0.39,0.82 0.04,0.16 0.05,0.66 0.08,0.88 0.17,-2.53 -0.13,-2.3 -1.09,-4.28 -2.17,-0.91 -2.36,-1.17 -4.95,-0.5 -1.06,0.28 -3.12,1.07 -3.65,1.98 1.42,-0.76 3.63,-1.71 5.25,-1.83 1.9,-0.13 4.14,0.81 3.97,2.93z"/>
  <path class="fil29" d="M85.09 5.68l1.39 -0.35 0.07 -1.75c-1.87,-1.27 -3.61,0.83 -1.46,2.1z"/>
  <path class="fil28" d="M67.41 33.68l1.78 -0.12c-0.39,-0.38 0.12,-0.23 -0.8,-0.59 -0.21,-0.08 -0.63,-0.05 -0.83,-0.07 -0.32,0.22 0.04,0.63 -1.99,-0.13 -2.92,-1.09 -2.65,-2.02 -3.7,-3.4 0.32,2.81 2.81,4.28 5.54,4.31z"/>
  <path class="fil0" d="M6.3 1.75c0.79,0.8 1.16,0.91 2.05,0.26 0.82,-2.25 -2.16,-2.97 -2.05,-0.26z"/>
  <path class="fil8" d="M47.11 51.27l-1.23 0.44c0.11,1.38 0.71,1.79 2,1.53 0.62,-1.12 -0.34,-1.33 -0.77,-1.97z"/>
  <path class="fil30" d="M112.1 60.89c1.57,-0.47 7.13,-2.37 8.19,-3.54 -0.65,0.25 -1.18,0.64 -1.88,0.92 -0.63,0.26 -1.6,0.47 -2.31,0.72 -1.31,0.46 -3.26,0.87 -4,1.9z"/>
  <path class="fil26" d="M47.11 51.27c0.43,0.64 1.39,0.85 0.77,1.97 -1.29,0.26 -1.89,-0.15 -2,-1.53l1.23 -0.44zm0 0c-0.02,-0.02 0.25,-0.56 -0.86,-0.24 -0.22,0.06 -0.49,0.28 -0.62,0.47 -1.44,2.21 4.71,3.7 2.21,-0.24l-0.89 -0.32 0.07 0.03 0.03 0.02 0.02 0.01 0.03 0.03 0.01 0.04 0.01 0.02 0 0.02 0.01 0.06 -0.02 0.1z"/>
  <path class="fil29" d="M97.86 22.7c-0.68,0.86 -0.21,1.66 1.02,1.28 0.62,-1.02 0.02,-1.62 -1.02,-1.28z"/>
  <path class="fil15" d="M107.14 86.35c-0.73,-0.61 -1.09,-0.62 -1.94,-1.46l-0.05 1.27c0.66,0.46 1.28,0.82 1.99,0.19z"/>
  <path class="fil31" d="M29.79 78.21l1.22 -1.13c0.44,-0.78 0.58,-0.84 0.62,-1.69l-0.56 -0.51 -0.36 -0.1 -0.48 0.47 0.97 0.27c-0.26,1.31 -0.72,1.98 -1.8,2.52l0.39 0.17z"/>
  <path class="fil32" d="M63.31 29.81l0.21 -1.8 -0.52 0.8 -0.14 -2.16c-0.34,0.69 -0.55,2.8 0.45,3.16z"/>
  <path class="fil33" d="M23.09 47.47c0.2,0.33 0.01,1.07 1.12,1.13 -0.22,-0.73 -0.45,-0.94 -1.12,-1.13z"/>
  <path class="fil33" d="M33.81 53.92c0.08,0.12 -0.51,0.27 0.52,0.55 1.06,0.29 0.8,-0.12 0.91,-0.26l-1.43 -0.29z"/>
  <path class="fil33" d="M18.68 40.73c0.52,0 0.35,0.11 0.37,-0.48 -0.24,-1.05 0.03,-0.54 -0.66,-1.01l0.29 1.49z"/>
  <path class="fil33" d="M26.59 50.72c-0.31,-0.83 -0.45,-0.85 -1.27,-1.03 0.22,0.56 -0.08,0.26 0.41,0.66 0.24,0.19 0.62,0.29 0.86,0.37z"/>
  <path class="fil27" d="M66.68 63.9l-0.31 -1.43c-0.68,0.93 -0.64,1.08 0.31,1.43z"/>
  <path class="fil33" d="M20.3 43.65c-0.07,-0.66 -0.06,-1.02 -0.72,-1.45 -0.07,0.83 0.11,1.05 0.72,1.45z"/>
  <path class="fil33" d="M31.43 53.53l0.69 0.16c-0.21,-0.66 -0.53,-0.65 -1.37,-0.73 0.32,0.54 -0.12,0.27 0.68,0.57z"/>
  <polygon class="fil34" points="28.11,51.98 28.6,52.2 28.84,52.27 29.3,52.51 29.09,52 28.21,51.46 27.91,51.46 "/>
  <path class="fil33" d="M18.24 32.93c-0.56,0.67 -0.44,0.49 -0.29,1.55 0.55,-0.66 0.42,-0.59 0.29,-1.55z"/>
  <path class="fil33" d="M19.48 27.67l-0.12 0.62c0.57,-0.1 0.06,0.33 0.61,-0.38l0.1 -1.04 -0.59 0.8z"/>
  <path class="fil33" d="M44.54 53.91l-1.39 0.4c0.59,0.36 0.42,0.21 1.35,0.11l0.04 -0.51z"/>
  <path class="fil33" d="M18.77 31.28c0.15,-0.9 0.3,-0.76 -0.06,-1.44l-0.24 0.85 -0.22 0.78 0.52 -0.19z"/>
  <path class="fil34" d="M21.13 45c0.31,0.88 -0.06,0.53 0.83,1.34 0.02,-0.64 -0.15,-1.05 -0.83,-1.34z"/>
  <path class="fil34" d="M41.55 54.58c-0.43,-0.06 -0.38,-0.16 -0.97,-0.04 -0.6,0.11 -0.23,0.09 -0.5,0.32 0.94,0.06 0.85,0.2 1.47,-0.28z"/>
  <path class="fil34" d="M36.8 54.54c0.63,0.54 0.53,0.39 1.5,0.29 -0.65,-0.47 -0.54,-0.35 -1.5,-0.29z"/>
  <path class="fil34" d="M18.27 37.6c0.08,-1.02 0.21,-0.7 -0.29,-1.41 -0.08,1.02 -0.2,0.69 0.29,1.41z"/>
  <path class="fil35" d="M88.86 60.86l0.05 0.18c0.76,-0.37 0.64,-0.25 0.85,-1.15l-0.9 0.97z"/>
  <path class="fil34" d="M18.4 26.29c0,0.62 -0.14,0.44 0.54,0.39l0.35 -0.47 -0.89 0.08z"/>
  <path class="fil33" d="M21.27 25.53c0.14,-0.03 0.28,0.08 0.53,-0.16 0.36,-0.34 0.11,-0.07 0.21,-0.44 -1.13,0.27 -0.61,-0.03 -0.74,0.6z"/>
  <path class="fil36" d="M88.28 61.93c0.67,-0.1 0.51,-0.16 0.63,-0.89l-0.05 -0.18 -0.58 1.07z"/>
  <path class="fil33" d="M20.47 24.81l0.16 -0.94c-0.29,0.22 -0.42,-0.44 -0.38,0.47 0.04,0.94 -0.02,0.17 0.22,0.47z"/>
  <polygon class="fil34" points="19.25,24.81 18.96,24.54 18.57,24.84 19.01,25.07 19.43,25.39 "/>
  <path class="fil33" d="M21.07 26.41c0.38,0.53 -0.27,0.68 0.89,0.55l-0.89 -0.55z"/>
  <path class="fil30" d="M100 63.96c-0.22,-0.64 0.18,-0.42 -0.78,-0.81l0.78 0.81z"/>
  <path class="fil37" d="M86.81 49.93c-0.27,-0.73 -0.21,-0.24 0.21,-0.44l-0.61 -0.25 0.4 0.69z"/>
  <path class="fil38" d="M18.68 40.73l0.51 0.01 -0.14 -0.49c-0.02,0.59 0.15,0.48 -0.37,0.48z"/>
  <path class="fil0" d="M9.9 9.73c0.45,2.22 4.17,1.7 3.62,-0.89 -0.47,-2.27 -4.16,-1.77 -3.62,0.89z"/>
  <path class="fil0" d="M8.74 29.03c0.58,2.84 5.31,2.17 4.62,-1.13 -0.6,-2.89 -5.31,-2.25 -4.62,1.13z"/>
  <path class="fil0" d="M36.05 9.14c0.62,1.8 3.41,0.92 2.84,-0.98 -0.55,-1.82 -3.52,-0.99 -2.84,0.98z"/>
  <path class="fil0" d="M83.91 4.94c0.63,1.8 3.41,0.91 2.84,-0.98 -0.54,-1.82 -3.52,-0.99 -2.84,0.98z"/>
  <path class="fil20" d="M92.98 14.32c2.09,6.2 11.42,3.16 9.51,-3.36 -1.83,-6.25 -11.79,-3.39 -9.51,3.36z"/>
  <path class="fil0" d="M94.4 13.77c1.46,4.21 7.97,2.14 6.64,-2.28 -1.28,-4.25 -8.23,-2.31 -6.64,2.28z"/>
  <path class="fil0" d="M108.42 6.94c0.34,0.98 1.84,0.5 1.54,-0.53 -0.3,-0.98 -1.91,-0.53 -1.54,0.53z"/>
  <path class="fil20" d="M51.9 19.87c0.6,1.77 3.26,0.9 2.72,-0.96 -0.53,-1.79 -3.37,-0.97 -2.72,0.96z"/>
  <path class="fil20" d="M1.37 8.25c0.92,2.71 5,1.38 4.16,-1.47 -0.8,-2.74 -5.16,-1.48 -4.16,1.47z"/>
  <path class="fil20" d="M10.28 28.72c0.34,1.01 1.86,0.52 1.55,-0.54 -0.3,-1.02 -1.92,-0.56 -1.55,0.54z"/>
  <path class="fil0" d="M19.72 26.22c0.3,0.3 0.44,0.33 0.77,0.09 0.3,-0.83 -0.81,-1.1 -0.77,-0.09z"/>
 </g>
</svg>
